<svg width="40" height="40" viewBox="0 0 40 40" fill="none" xmlns="http://www.w3.org/2000/svg">
<path d="M34.9117 13.8417C34.8949 12.5794 34.6586 11.3296 34.2133 10.1483C33.8272 9.15191 33.2376 8.24699 32.4819 7.49137C31.7263 6.73576 30.8214 6.14607 29.825 5.75999C28.6589 5.32225 27.427 5.08556 26.1817 5.05999C24.5783 4.98832 24.07 4.96832 20 4.96832C15.93 4.96832 15.4083 4.96832 13.8167 5.05999C12.5719 5.08575 11.3406 5.32244 10.175 5.75999C9.17843 6.14581 8.27337 6.7354 7.51772 7.49104C6.76207 8.24669 6.17248 9.15175 5.78667 10.1483C5.34805 11.3135 5.11187 12.5452 5.08833 13.79C5.01667 15.395 4.995 15.9033 4.995 19.9733C4.995 24.0433 4.995 24.5633 5.08833 26.1567C5.11333 27.4033 5.34833 28.6333 5.78667 29.8017C6.17313 30.7979 6.76316 31.7026 7.51906 32.4579C8.27496 33.2133 9.18011 33.8026 10.1767 34.1883C11.3391 34.6437 12.5706 34.8973 13.8183 34.9383C15.4233 35.01 15.9317 35.0317 20.0017 35.0317C24.0717 35.0317 24.5933 35.0317 26.185 34.9383C27.4303 34.9138 28.6623 34.6777 29.8283 34.24C30.8245 33.8535 31.7292 33.2636 32.4847 32.5081C33.2403 31.7525 33.8301 30.8478 34.2167 29.8517C34.655 28.685 34.89 27.455 34.915 26.2067C34.9867 24.6033 35.0083 24.095 35.0083 20.0233C35.005 15.9533 35.005 15.4367 34.9117 13.8417V13.8417ZM19.99 27.67C15.7333 27.67 12.285 24.2217 12.285 19.965C12.285 15.7083 15.7333 12.26 19.99 12.26C22.0335 12.26 23.9933 13.0718 25.4383 14.5167C26.8832 15.9617 27.695 17.9215 27.695 19.965C27.695 22.0085 26.8832 23.9683 25.4383 25.4132C23.9933 26.8582 22.0335 27.67 19.99 27.67V27.67ZM28.0017 13.7717C27.7657 13.7719 27.5319 13.7256 27.3139 13.6353C27.0958 13.5451 26.8976 13.4128 26.7307 13.2459C26.5639 13.079 26.4315 12.8809 26.3413 12.6628C26.2511 12.4447 26.2048 12.211 26.205 11.975C26.205 11.7392 26.2514 11.5056 26.3417 11.2878C26.4319 11.0699 26.5642 10.8719 26.731 10.7051C26.8977 10.5384 27.0957 10.4061 27.3136 10.3159C27.5315 10.2256 27.765 10.1792 28.0008 10.1792C28.2367 10.1792 28.4702 10.2256 28.6881 10.3159C28.9059 10.4061 29.1039 10.5384 29.2707 10.7051C29.4374 10.8719 29.5697 11.0699 29.66 11.2878C29.7502 11.5056 29.7967 11.7392 29.7967 11.975C29.7967 12.9683 28.9933 13.7717 28.0017 13.7717Z" fill="white"/>
<path d="M19.99 24.97C22.7542 24.97 24.995 22.7292 24.995 19.965C24.995 17.2008 22.7542 14.96 19.99 14.96C17.2258 14.96 14.985 17.2008 14.985 19.965C14.985 22.7292 17.2258 24.97 19.99 24.97Z" fill="white"/>
</svg>
