<svg width="24" height="24" viewBox="0 0 24 24" fill="none" xmlns="http://www.w3.org/2000/svg">
<path d="M20.947 8.30499C20.9369 7.54761 20.7951 6.79776 20.528 6.08899C20.2964 5.49114 19.9425 4.94819 19.4892 4.49482C19.0358 4.04145 18.4929 3.68764 17.895 3.45599C17.1953 3.19334 16.4562 3.05133 15.709 3.03599C14.747 2.99299 14.442 2.98099 12 2.98099C9.558 2.98099 9.245 2.98099 8.29 3.03599C7.54316 3.05144 6.80435 3.19346 6.105 3.45599C5.50706 3.68748 4.96402 4.04123 4.51063 4.49462C4.05724 4.94801 3.70349 5.49105 3.472 6.08899C3.20883 6.78812 3.06712 7.5271 3.053 8.27399C3.01 9.23699 2.997 9.54199 2.997 11.984C2.997 14.426 2.997 14.738 3.053 15.694C3.068 16.442 3.209 17.18 3.472 17.881C3.70388 18.4787 4.0579 19.0216 4.51144 19.4748C4.96498 19.928 5.50806 20.2816 6.106 20.513C6.80343 20.7862 7.54237 20.9384 8.291 20.963C9.254 21.006 9.559 21.019 12.001 21.019C14.443 21.019 14.756 21.019 15.711 20.963C16.4582 20.9483 17.1974 20.8066 17.897 20.544C18.4947 20.3121 19.0375 19.9582 19.4908 19.5048C19.9442 19.0515 20.2981 18.5087 20.53 17.911C20.793 17.211 20.934 16.473 20.949 15.724C20.992 14.762 21.005 14.457 21.005 12.014C21.003 9.57199 21.003 9.26199 20.947 8.30499V8.30499ZM11.994 16.602C9.44 16.602 7.371 14.533 7.371 11.979C7.371 9.42499 9.44 7.35599 11.994 7.35599C13.2201 7.35599 14.396 7.84305 15.263 8.71003C16.1299 9.57701 16.617 10.7529 16.617 11.979C16.617 13.2051 16.1299 14.381 15.263 15.2479C14.396 16.1149 13.2201 16.602 11.994 16.602V16.602ZM16.801 8.26299C16.6594 8.26312 16.5192 8.23533 16.3883 8.1812C16.2575 8.12707 16.1386 8.04767 16.0384 7.94754C15.9383 7.84741 15.8589 7.72852 15.8048 7.59768C15.7507 7.46683 15.7229 7.32659 15.723 7.18499C15.723 7.04349 15.7509 6.90337 15.805 6.77265C15.8592 6.64192 15.9385 6.52314 16.0386 6.42308C16.1386 6.32302 16.2574 6.24366 16.3882 6.18951C16.5189 6.13536 16.659 6.10749 16.8005 6.10749C16.942 6.10749 17.0821 6.13536 17.2128 6.18951C17.3436 6.24366 17.4624 6.32302 17.5624 6.42308C17.6625 6.52314 17.7418 6.64192 17.796 6.77265C17.8501 6.90337 17.878 7.04349 17.878 7.18499C17.878 7.78099 17.396 8.26299 16.801 8.26299Z" fill="white"/>
<path d="M11.994 14.982C13.6525 14.982 14.997 13.6375 14.997 11.979C14.997 10.3205 13.6525 8.97601 11.994 8.97601C10.3355 8.97601 8.991 10.3205 8.991 11.979C8.991 13.6375 10.3355 14.982 11.994 14.982Z" fill="white"/>
</svg>
