<?xml version="1.0" encoding="utf-8"?>
<!-- Generator: Adobe Illustrator 23.0.1, SVG Export Plug-In . SVG Version: 6.00 Build 0)  -->
<svg version="1.1" id="Calque_1" xmlns="http://www.w3.org/2000/svg" xmlns:xlink="http://www.w3.org/1999/xlink" x="0px" y="0px"
	 viewBox="0 0 80 80" style="enable-background:new 0 0 80 80;" xml:space="preserve">
<style type="text/css">
	.st0{fill:#0067B1;}
	.st1{fill:#FFFFFF;}
	.st2{fill:#ED174F;}
</style>
<g>
	<circle id="XMLID_35_" class="st0" cx="40" cy="40" r="36"/>
	<path class="st1" d="M40,66.8c-14.8,0-26.8-12-26.8-26.8c0-14.8,12-26.8,26.8-26.8c14.8,0,26.8,12,26.8,26.8
		C66.8,54.8,54.8,66.8,40,66.8z M40,14.3c-14.2,0-25.7,11.5-25.7,25.7c0,14.2,11.5,25.7,25.7,25.7S65.7,54.2,65.7,40
		C65.7,25.8,54.2,14.3,40,14.3z"/>
	<g>
		<g>
			<path id="XMLID_32_" class="st1" d="M56.3,31.9c1.1-0.8,2.3-1,3.2-0.8c1.3,0.2,2.5,1.1,3.6,2.3c-1-3.6-2.9-6.8-5.3-9.5
				c-1,0.8-2.6,2.1-4.7,3.9c0.7,0.7,1.3,1.6,1.9,2.4C55.5,30.7,55.9,31.3,56.3,31.9z"/>
			<path id="XMLID_31_" class="st1" d="M48.4,23.7c1.3,1,2.6,2,3.8,3.2c2.1-1.8,3.7-3.1,4.7-3.9c-2.3-2.3-5-4.1-8-5.3
				c0.7,1.1,1.2,2.4,0.9,3.7C49.7,22.2,49.2,23,48.4,23.7z"/>
			<path id="XMLID_30_" class="st1" d="M42.8,20.2c1.6,0.8,3.2,1.7,4.7,2.8c0.7-0.7,1.1-1.3,1.2-1.9c0.3-1.5-0.7-2.9-1.8-4.1
				c-2.2-0.7-4.5-1-6.9-1c-3.2,0-6.3,0.6-9.1,1.8C34.7,17.4,38.8,18.2,42.8,20.2z"/>
			<path class="st1" d="M59.4,32.1c-0.8-0.1-1.6,0.1-2.4,0.7c2.6,3.5,3.8,7.8,4.2,11.2l-1.3-0.6c-0.3-3.2-1.4-6.6-3.8-9.8
				c-1.6,1.8-3.1,4.1-4.1,9.9L50.8,44c1.3-7.3,3-9.6,4.7-11.3c-1-1.4-2.2-2.8-3.4-4.1c-2.3,2-5.2,4.5-8.3,7.4L43,35
				c3.1-2.9,6-5.3,8.3-7.3c-1.2-1.2-2.3-2.2-3.7-3.3c-2.6,1.9-7.4,3.2-14.5,4.1l-0.1-1.1c7.4-0.9,11.5-2.3,13.7-3.7
				c-1.4-1-2.8-1.8-4.2-2.5c-5.3-2.6-10.7-3-15.2-1.5c-5.9,3.7-10,9.9-11,17.1c0.7-1,1.6-2.1,2.8-3.3l0,1.6c-1.5,1.8-2.4,3.2-3,4.3
				c0,0.2,0,0.5,0,0.7c0,6.1,2.2,11.6,6,15.8c1.3-1.3,0.6-0.6,3.3-3.3l1.2,0.3c-2.8,2.7-2.2,2.3-3.7,3.9c4,4.1,9.4,6.8,15.5,7.2
				c4.3-1.7,7.8-5.5,9.8-11.5l1.5-0.5c-2.1,6.6-5.6,10.2-8.9,12.1c7.9-0.2,14.9-4.2,19.1-10.3c0.1-0.9,0.1-1.5,0.1-1.5l1.1-0.7
				c0,0,0,0.1,0,0.2c2-3.5,3.1-7.5,3.1-11.8c0-1.2-0.1-2.4-0.3-3.5C62.7,34.3,61.1,32.4,59.4,32.1z M27.6,51.7L27.5,50
				c1-1,2-1.9,3-2.9l0.3,1.3C29.7,49.4,28.6,50.7,27.6,51.7z"/>
		</g>
		<g>
			<g>
				<g id="g14521_1_" transform="translate(485.0269,282.9667)">
					<path id="path14523_1_" class="st0" d="M-458.6-259.7l0.2,0.7h0.8l-0.6,0.4l0.2,0.7l-0.6-0.4l-0.6,0.4l0.2-0.7l-0.6-0.4h0.8
						L-458.6-259.7z"/>
				</g>
				<g id="g14525_1_" transform="translate(486.6294,282.0345)">
					<path id="path14527_1_" class="st0" d="M-455.7-256.2l0.2,0.7h0.8l-0.6,0.4l0.2,0.7l-0.6-0.4l-0.6,0.4l0.2-0.7l-0.6-0.4h0.8
						L-455.7-256.2z"/>
				</g>
				<g id="g14529_1_" transform="translate(485.9423,282.7542)">
					<path id="path14531_1_" class="st0" d="M-456.9-258.9l0.2,0.7h0.8l-0.6,0.4l0.2,0.7l-0.6-0.4l-0.6,0.4l0.2-0.7l-0.6-0.4h0.8
						L-456.9-258.9z"/>
				</g>
				<g id="g14533_1_" transform="translate(486.8898,281.1519)">
					<path id="path14535_1_" class="st0" d="M-455.2-252.9l0.2,0.7h0.8l-0.6,0.4l0.2,0.7l-0.6-0.4l-0.6,0.4l0.2-0.7l-0.6-0.4h0.8
						L-455.2-252.9z"/>
				</g>
				<g id="g14537_1_" transform="translate(486.7758,280.2202)">
					<path id="path14539_1_" class="st0" d="M-455.4-249.3l0.2,0.7h0.8l-0.6,0.5l0.2,0.7l-0.6-0.4l-0.6,0.4l0.2-0.7l-0.6-0.5h0.8
						L-455.4-249.3z"/>
				</g>
				<g id="g14541_1_" transform="translate(486.2607,279.4755)">
					<path id="path14543_1_" class="st0" d="M-456.4-246.5l0.2,0.7h0.8l-0.6,0.5l0.2,0.7l-0.6-0.4l-0.6,0.4l0.2-0.7l-0.6-0.5h0.8
						L-456.4-246.5z"/>
				</g>
				<g id="g14545_1_" transform="translate(485.4517,279.0599)">
					<path id="path14547_1_" class="st0" d="M-457.8-245l0.2,0.7h0.8l-0.6,0.5l0.2,0.7l-0.6-0.4l-0.6,0.4l0.2-0.7l-0.6-0.4h0.8
						L-457.8-245z"/>
				</g>
				<g id="g14549_1_" transform="translate(483.3974,282.1165)">
					<path id="path14551_1_" class="st0" d="M-461.5-256.5l-0.2,0.7h-0.8l0.6,0.5l-0.2,0.7l0.6-0.4l0.6,0.4l-0.2-0.7l0.6-0.5h-0.8
						L-461.5-256.5z"/>
				</g>
				<g id="g14553_1_" transform="translate(484.0669,282.7542)">
					<path id="path14555_1_" class="st0" d="M-460.3-258.9l-0.2,0.7h-0.8l0.6,0.4l-0.2,0.7l0.6-0.4l0.6,0.4l-0.2-0.7l0.6-0.4h-0.8
						L-460.3-258.9z"/>
				</g>
				<g id="g14557_1_" transform="translate(483.0862,281.2671)">
					<path id="path14559_1_" class="st0" d="M-462-253.3l-0.2,0.7h-0.8l0.6,0.4l-0.2,0.7l0.6-0.4l0.6,0.4l-0.2-0.7l0.6-0.4h-0.8
						L-462-253.3z"/>
				</g>
				<g id="g14561_1_" transform="translate(483.1685,280.3345)">
					<path id="path14563_1_" class="st0" d="M-461.9-249.8l-0.2,0.7h-0.8l0.6,0.4l-0.2,0.7l0.6-0.4l0.6,0.4l-0.2-0.7l0.6-0.4h-0.8
						L-461.9-249.8z"/>
				</g>
				<g id="g14565_1_" transform="translate(483.6833,279.5736)">
					<path id="path14567_1_" class="st0" d="M-460.9-246.9l-0.2,0.7h-0.8l0.6,0.5l-0.2,0.7l0.6-0.4l0.6,0.4l-0.2-0.7l0.6-0.4h-0.8
						L-460.9-246.9z"/>
				</g>
				<g id="g14569_1_" transform="translate(484.4928,279.0914)">
					<path id="path14571_1_" class="st0" d="M-459.5-245.1l-0.2,0.7h-0.8l0.6,0.4l-0.2,0.7l0.6-0.4l0.6,0.4l-0.2-0.7l0.6-0.4h-0.8
						L-459.5-245.1z"/>
				</g>
			</g>
			<g>
				<g id="g14625_1_" transform="translate(495.7773,272.2524)">
					<path id="path14627_1_" class="st0" d="M-441.4-220.8h-3.9v-1l0.7-0.1v-3.1c0-1.1-0.1-1.6-0.9-1.6v-0.9l2.8-0.8
						c0.3,0.6,0.4,1.3,0.5,2h0c0.3-0.8,0.6-2,1.5-2c0.8,0,1.1,0.6,1.1,1.4c0,0.8-0.3,1.4-0.9,1.4c-0.4,0-0.7-0.2-0.9-0.2
						c-0.5-0.2-0.7,2-0.7,2.5v1.3l0.7,0.1V-220.8z"/>
				</g>
				<g id="g14629_1_" transform="translate(498.295,274.5579)">
					<path id="path14631_1_" class="st0" d="M-437.4-229.2c0,0.6-0.5,0.9-1.1,0.9c-0.7,0-1.2-0.5-1.3-1.2c-0.3,0-0.5,0.1-0.5,0.6
						c0,1.1,3.2,0.3,3.2,3.2c0,2.2-1.6,2.7-3,2.7c-0.9,0-2.5-0.1-2.5-1.5c0-0.6,0.3-1.1,1-1.1c1,0,1.1,0.9,1.3,1.5
						c0,0.2,0.2,0.2,0.3,0.2c0.5,0,0.9-0.2,0.9-0.6c0-1.3-3.3-0.8-3.3-3.6c0-1.8,2.1-2.6,3.1-2.6
						C-438.1-230.6-437.4-230.2-437.4-229.2"/>
				</g>
				<g id="g14633_1_" transform="translate(489.2514,272.495)">
					<path id="path14635_1_" class="st0" d="M-452-221.7c-1.4,0-1.3-1.8-1.3-3.8c0-2.1,0.2-3.8,1.3-3.8c1.4,0,1.5,1.8,1.5,3.8
						C-450.5-223.5-450.8-221.7-452-221.7 M-450.2-231.8c-1.2,0-2.5,0.5-3.2,1.5h0l0.1-1.8c0.1-1.2,0.4-4.6,2.1-4.6
						c0.8,0,0.6,1.1,0.7,1.6c0.2,1.2,0.7,2.5,2.3,2.5c1.1,0,2.2-0.7,2.2-2.2c0-2.2-1.9-3.7-4.1-3.7c-5.8,0-8.2,4.5-8.2,9.9
						c0,4.7,1.8,8.7,6.8,8.7c3.3,0,5.9-2.3,5.9-6.2C-445.7-229.4-447.4-231.8-450.2-231.8"/>
				</g>
				<g id="g14637_1_" transform="translate(482.5327,278.9433)">
					<path id="path14639_1_" class="st2" d="M-462.8-245v7c3.9,0.6,8.6,0.2,11.8-4.6c0.1-0.2,0.2-0.1,0.1,0.1
						c-0.9,1.9-3.1,3.6-5,5.1c-1.8,1.4-6.6,6.5-6.6,11c0,0.3,0,0.2,0.3,0c1.5-1.1,4.3-1.1,6.1-0.3c0.2,0.1,0.3,0.1,0.2-0.2
						c-0.3-3.5,0.4-7.3,1.9-9.4c1-1.5,3.8-5.4,4.3-8.5c0-0.3-0.1-0.3-0.5,0.2c-3.1,3.3-8.8,3.2-12.4-0.3
						C-462.7-245.3-462.8-245.2-462.8-245"/>
				</g>
				<g id="g14641_1_" transform="translate(492.8196,274.1113)">
					<path id="path14643_1_" class="st0" d="M-446.2-227.6c0-0.6,0-1.6,0.6-1.6c0.6,0,0.7,0.9,0.7,1.3c0,0.6-0.3,0.7-0.7,0.8
						l-0.7,0.2V-227.6z M-444.6-224.1c-0.9,0-1.4-0.8-1.5-1.6l3.7-1c-0.1-1.8-1.2-3.4-3.1-3.4c-2.1,0-3.5,1.6-3.5,4
						c0,1.9,1.1,3.6,3.4,3.6c1.3,0,2.6-0.6,3.2-1.8l-0.7-0.9C-443.4-224.6-443.9-224.1-444.6-224.1"/>
				</g>
			</g>
			<g>
				<g>
					<polyline id="XMLID_23_" class="st1" points="9.7,46.2 8.9,48.5 6.6,48.5 8.4,49.9 7.8,52.2 9.7,50.8 11.6,52.2 10.9,49.9 
						12.8,48.5 10.5,48.5 9.7,46.2 					"/>
					<polyline id="XMLID_22_" class="st1" points="18.3,58.9 17.5,61.1 15.2,61.1 17.1,62.5 16.4,64.8 18.3,63.5 20.2,64.8 
						19.5,62.5 21.4,61.1 19.1,61.1 18.3,58.9 					"/>
					<polyline id="XMLID_21_" class="st1" points="31.9,66.9 31.1,69.2 28.8,69.2 30.7,70.5 30,72.8 31.9,71.5 33.8,72.8 33.1,70.5 
						35,69.2 32.7,69.2 31.9,66.9 					"/>
					<polyline id="XMLID_20_" class="st1" points="48.5,66.9 47.7,69.2 45.3,69.2 47.2,70.5 46.5,72.8 48.5,71.5 50.4,72.8 
						49.7,70.5 51.6,69.2 49.3,69.2 48.5,66.9 					"/>
					<polyline id="XMLID_19_" class="st1" points="62.5,58.8 61.7,61 59.4,61 61.3,62.4 60.6,64.7 62.5,63.4 64.4,64.7 63.7,62.4 
						65.6,61 63.3,61 62.5,58.8 					"/>
					<polyline id="XMLID_18_" class="st1" points="70.4,46.1 69.6,48.4 67.2,48.4 69.1,49.8 68.4,52.1 70.4,50.7 72.3,52.1 
						71.6,49.8 73.5,48.4 71.2,48.4 70.4,46.1 					"/>
				</g>
				<g>
					<path class="st1" d="M8.7,37.1L7.6,37c-0.5-0.1-0.6,0-0.6-0.6c0.1-0.5,0.3-0.8,0.8-0.9c0,0,0,0,0.1,0c0.3,0,0.6,0.2,0.7,0.4
						c0.2,0.3,0.1,0.6,0.1,1L8.7,37.1 M8.1,34.1c0,0-0.1,0-0.1,0c-0.5,0-1,0.3-1.2,0.9c-0.2,0.4-0.2,0.9-0.3,1.3l-0.3,2.5l0.6,0.1
						c0-0.3,0.1-0.6,0.4-0.6c0,0,0,0,0,0l2.8,0.3c0.2,0,0.5,0,0.6,0.3c0,0.1,0.1,0.2,0.1,0.3l0,0.1l0.6,0.1l0.3-2.6l-0.6-0.1
						c0,0.3-0.1,0.6-0.4,0.6c0,0,0,0,0,0l-1.2-0.1l0.1-0.6c0.1-0.6,0.1-1.2-0.1-1.7C9.1,34.4,8.6,34.1,8.1,34.1"/>
					<path id="XMLID_15_" class="st1" d="M10,24.7L9,27l0.6,0.2c0.1-0.2,0.2-0.5,0.4-0.5c0,0,0.1,0,0.1,0l1,0.4l-0.7,1.7l-0.6-0.3
						c-0.2-0.1-0.5-0.2-0.5-0.4c0-0.2,0-0.2,0.1-0.4l-0.6-0.2l-1,2.4l0.6,0.2L8.4,30c0.1-0.2,0.2-0.4,0.4-0.4c0,0,0.1,0,0.1,0
						l2.6,1.1c0.2,0.1,0.5,0.2,0.5,0.4c0,0.1,0,0.2,0,0.3l-0.1,0.2l0.6,0.2l1-2.4l-0.6-0.2c-0.1,0.2-0.2,0.5-0.5,0.5
						c0,0-0.1,0-0.1,0L11,29.2l0.7-1.7l1,0.4c0.2,0.1,0.5,0.2,0.5,0.4c0,0.1,0,0.2,0,0.3l-0.1,0.1l0.6,0.2l1-2.4l-0.6-0.2
						c-0.1,0.2-0.2,0.5-0.4,0.5c0,0-0.1,0-0.1,0L11,25.8c-0.2-0.1-0.5-0.2-0.5-0.5c0-0.2,0-0.2,0.1-0.4L10,24.7"/>
					<path id="XMLID_14_" class="st1" d="M13.7,19.1l-1.5,2.1l0.5,0.3l0.1-0.1c0.1-0.1,0.3-0.3,0.4-0.3c0,0,0.1,0,0.1,0l2.3,1.5
						c0.2,0.1,0.5,0.3,0.4,0.5c0,0.1-0.1,0.3-0.2,0.4l0.5,0.3l1.4-2.1l-0.5-0.3c-0.1,0.2-0.3,0.4-0.5,0.4c0,0-0.1,0-0.1,0l-2.3-1.5
						c-0.2-0.1-0.5-0.3-0.4-0.6c0-0.1,0.1-0.3,0.2-0.4L13.7,19.1"/>
					<path id="XMLID_13_" class="st1" d="M18.4,14.3L16.6,16l0.4,0.4c0.1-0.1,0.3-0.2,0.5-0.2c0.1,0,0.1,0,0.2,0.1l1.9,2
						c0.2,0.2,0.4,0.4,0.3,0.6c0,0.1-0.1,0.2-0.2,0.3l0.4,0.4l3.1-2.8l-0.8-1.6l-0.6,0.2c0.1,0.5,0.2,0.7,0.1,1.2
						c-0.1,0.5-0.2,0.8-0.6,1.1c-0.1,0.1-0.2,0.2-0.3,0.2c0,0-0.1,0-0.1-0.1l-1.9-2.1c-0.2-0.2-0.4-0.4-0.3-0.6
						c0.1-0.2,0.1-0.2,0.3-0.3L18.4,14.3"/>
					<path class="st1" d="M26.5,12.2l-0.1-1.8l1.2,1.3L26.5,12.2 M26.7,9.1l-1,0.4l0.1,3.8c0,0.6,0.1,1-0.4,1.4l0.3,0.6l2-0.8
						l-0.2-0.6c-0.1,0-0.3,0.1-0.5,0.1c-0.1,0-0.2,0-0.2-0.1c-0.1-0.1-0.1-0.2-0.1-0.3l-0.1-0.8l1.5-0.6l0.7,0.7
						c0.2,0.2-0.2,0.4-0.3,0.5l-0.1,0.1l0.2,0.6l2.4-1l-0.3-0.6l-0.1,0c-0.1,0-0.2,0-0.3,0c-0.1,0-0.2,0-0.3-0.1
						c-0.1-0.1-0.3-0.3-0.4-0.4L26.7,9.1"/>
					<path class="st1" d="M35.6,11.4c-0.2,0-0.4,0-0.5-0.2c0-0.1,0-0.1,0-0.2l0-0.2l-0.3-2.6c0-0.1-0.1-0.4,0-0.5
						c0.1-0.1,0.4-0.2,0.6-0.2c0.1,0,0.1,0,0.2,0c0.8,0,1.2,0.4,1.4,1.2c0.3,1.2,0,2.5-1.3,2.7C35.7,11.4,35.6,11.4,35.6,11.4
						 M36,6.8c-0.3,0-0.6,0-0.9,0.1l-2.3,0.2l0.1,0.6c0,0,0.1,0,0.1,0c0.3,0,0.5,0,0.5,0.3l0.3,2.8c0,0.3,0.1,0.5-0.2,0.7
						c-0.1,0.1-0.3,0.1-0.4,0.1l0.1,0.6l2.2-0.2c1-0.1,1.9-0.2,2.6-0.9c0.6-0.6,0.7-1.6,0.4-2.5C38.2,8,37.8,7.4,37,7
						C36.7,6.9,36.3,6.8,36,6.8"/>
					<path id="XMLID_8_" class="st1" d="M42.4,6.5l0,0.6c0.1,0,0.3,0.1,0.4,0.1c0.1,0.1,0.1,0.1,0.1,0.2l-0.2,2.8
						c0,0.3,0,0.5-0.3,0.6c-0.1,0-0.2,0-0.3,0c0,0-0.1,0-0.1,0l0,0.6l4.6,0.4l0.6-1.6L46.7,10c-0.6,0.7-1.1,1.2-2,1.2
						c-0.1,0-0.1,0-0.2,0c-0.2,0-0.6-0.1-0.6-0.3L44,9.3c0.6,0,0.8,0.1,0.9,0.7l0,0.2l0.5,0L45.6,8l-0.5,0c0,0.3-0.2,0.7-0.5,0.7
						c0,0,0,0,0,0l-0.5,0L44.1,8c0-0.2,0-0.5,0.1-0.6c0.1-0.1,0.3-0.1,0.4-0.1c0.1,0,0.1,0,0.2,0c0.8,0.1,1.4,0.6,1.8,1.4l0.5-0.1
						l-0.6-1.7L42.4,6.5"/>
					<path id="XMLID_7_" class="st1" d="M51.6,8.3l-0.2,0.6c0.3,0.1,0.5,0.3,0.4,0.5l-1.1,2.6c-0.1,0.2-0.2,0.5-0.5,0.5c0,0,0,0,0,0
						c-0.1,0-0.2,0-0.4-0.1l-0.2,0.6l3.9,1.6l1.2-1.4l-0.4-0.5c-0.4,0.3-0.6,0.5-1,0.6c-0.2,0.1-0.4,0.1-0.6,0.1
						c-0.2,0-0.4,0-0.7-0.1c-0.1,0-0.4-0.2-0.3-0.4l1.1-2.7c0.1-0.2,0.2-0.5,0.5-0.5c0,0,0,0,0.1,0c0.1,0,0.2,0,0.4,0.1l0.2-0.6
						L51.6,8.3"/>
					<path class="st1" d="M60.7,16.1C60.7,16.1,60.7,16.1,60.7,16.1c-0.4,0-0.7-0.2-0.9-0.5l-0.1-0.1l0.7-0.9
						c0.2-0.2,0.3-0.4,0.4-0.4c0.1,0,0.2,0.1,0.4,0.2c0.4,0.3,0.6,0.7,0.3,1.1C61.3,15.9,61,16.1,60.7,16.1 M59.7,12.5L59.3,13
						c0.3,0.2,0.5,0.5,0.3,0.7l-1.8,2.2c-0.1,0.2-0.3,0.4-0.5,0.4c0,0,0,0,0,0c-0.1,0-0.2-0.1-0.3-0.1L56.8,16l-0.4,0.5l2,1.6
						l0.4-0.5c-0.2-0.2-0.5-0.4-0.3-0.7l0.7-0.9l0.5,0.4c0.5,0.4,0.9,0.7,1.5,0.8c0,0,0.1,0,0.1,0c0.5,0,0.9-0.3,1.2-0.8
						c0.3-0.5,0.3-1-0.1-1.5c-0.2-0.3-0.6-0.7-0.9-0.9L59.7,12.5"/>
					<path id="XMLID_4_" class="st1" d="M66.3,18.5l-0.5,0.4l0.1,0.1c0.1,0.2,0.2,0.5,0,0.6l-2.3,1.6c-0.2,0.1-0.3,0.2-0.5,0.2
						c0,0-0.1,0-0.1,0c-0.1,0-0.2-0.1-0.3-0.2l-0.1-0.1l-0.5,0.4l1.5,2.2l0.5-0.3C64,23,63.8,22.7,64,22.5l1.2-0.8l1.1,1.6l-0.9,0.6
						c-0.2,0.1-0.3,0.2-0.5,0.2c0,0-0.1,0-0.1,0c-0.1,0-0.2-0.1-0.3-0.2l-0.1-0.1l-0.5,0.4l1.5,2.2l0.5-0.3
						c-0.1-0.2-0.3-0.6-0.1-0.7l2.3-1.6c0.2-0.1,0.3-0.2,0.5-0.2c0.1,0,0.1,0,0.2,0c0.1,0.1,0.2,0.1,0.3,0.3l0.5-0.4l-1.5-2.2
						l-0.5,0.4c0.2,0.2,0.3,0.6,0.1,0.7l-0.9,0.6l-1.1-1.6l0.6-0.4c0.2-0.1,0.3-0.2,0.5-0.2c0.1,0,0.1,0,0.2,0
						c0.2,0.1,0.2,0.2,0.3,0.3l0.5-0.3L66.3,18.5"/>
					<path id="XMLID_3_" class="st1" d="M71.4,27l-0.6,0.2l0,0.1c0.1,0.2,0.1,0.5-0.1,0.6l-2.6,1c-0.1,0.1-0.3,0.1-0.4,0.1
						c-0.1,0-0.2,0-0.3-0.1c-0.1-0.1-0.2-0.2-0.2-0.4l-0.6,0.2l0.9,2.6l0.6-0.2c-0.1-0.3-0.2-0.6,0.1-0.7l2.6-1
						c0.1-0.1,0.3-0.1,0.4-0.1c0.1,0,0.2,0,0.3,0.1c0.1,0.1,0.2,0.2,0.2,0.4l0.6-0.2L71.4,27"/>
					<path class="st1" d="M71.2,36.8l-0.2-1.2l1.7,0.4L71.2,36.8 M69,33.8l-0.6,0.1l0.3,2.1l0.6-0.1c0-0.2-0.1-0.6,0.2-0.6
						c0,0,0.1,0,0.1,0c0,0,0.1,0,0.1,0l0.7,0.1l0.2,1.6l-0.9,0.4c0,0-0.1,0-0.1,0c-0.2,0-0.2-0.3-0.3-0.5l0-0.1L68.8,37l0.3,2.6
						l0.6-0.1l0-0.1c0-0.2,0-0.4,0.2-0.5c0.1-0.1,0.4-0.2,0.5-0.3l3.5-2l-0.1-1.1l-3.6-0.9C69.6,34.5,69.3,34.5,69,33.8"/>
				</g>
			</g>
		</g>
	</g>
</g>
</svg>
