<svg width="40" height="40" viewBox="0 0 40 40" fill="none" xmlns="http://www.w3.org/2000/svg">
<path d="M35.9883 12.005C35.7985 11.3007 35.4275 10.6583 34.9123 10.1419C34.3971 9.62554 33.7556 9.25309 33.0517 9.06166C30.4417 8.34499 20 8.33333 20 8.33333C20 8.33333 9.56 8.32166 6.94833 9.00666C6.24488 9.2069 5.6047 9.58462 5.08928 10.1035C4.57385 10.6225 4.20048 11.2652 4.005 11.97C3.31667 14.58 3.31 19.9933 3.31 19.9933C3.31 19.9933 3.30333 25.4333 3.98667 28.0167C4.37 29.445 5.495 30.5733 6.925 30.9583C9.56167 31.675 19.975 31.6867 19.975 31.6867C19.975 31.6867 30.4167 31.6983 33.0267 31.015C33.7308 30.8239 34.3729 30.4523 34.8894 29.937C35.4059 29.4216 35.779 28.7804 35.9717 28.0767C36.6617 25.4683 36.6667 20.0567 36.6667 20.0567C36.6667 20.0567 36.7 14.615 35.9883 12.005V12.005ZM16.66 25.0083L16.6683 15.0083L25.3467 20.0167L16.66 25.0083V25.0083Z" fill="white"/>
</svg>
